<svg width="16" height="16" viewBox="0 0 16 16" fill="none" xmlns="http://www.w3.org/2000/svg">
<path d="M13.3366 14.6667H2.66996C2.30178 14.6667 2.0033 14.3682 2.0033 14V2.00004C2.0033 1.63185 2.30178 1.33337 2.66996 1.33337H13.3366C13.7048 1.33337 14.0033 1.63185 14.0033 2.00004V14C14.0033 14.3682 13.7048 14.6667 13.3366 14.6667ZM12.67 13.3334V2.66671H3.33663V13.3334H12.67ZM6.0033 4.00004V5.33337C6.0033 6.43794 6.89871 7.33337 8.00331 7.33337C9.10784 7.33337 10.0033 6.43794 10.0033 5.33337V4.00004H11.3366V5.33337C11.3366 7.17431 9.84424 8.66671 8.00331 8.66671C6.16235 8.66671 4.66996 7.17431 4.66996 5.33337V4.00004H6.0033Z" fill="#36338D"/>
</svg>
